<?xml version="1.0" encoding="utf-8"?>
<!-- Svg Vector Icons : http://www.onlinewebfonts.com/icon -->
<!DOCTYPE svg PUBLIC "-//W3C//DTD SVG 1.1//EN" "http://www.w3.org/Graphics/SVG/1.1/DTD/svg11.dtd">
<svg version="1.1" xmlns="http://www.w3.org/2000/svg" xmlns:xlink="http://www.w3.org/1999/xlink" x="0px" y="0px" viewBox="0 0 1000 1000" enable-background="new 0 0 1000 1000" xml:space="preserve">
<metadata> Svg Vector Icons : http://www.onlinewebfonts.com/icon </metadata>
<g><path d="M846.5,153.5c-191.4-191.4-501.6-191.4-692.9,0c-191.4,191.4-191.4,501.6-0.1,693c191.4,191.4,501.6,191.4,693.1,0C1037.8,655.1,1037.8,344.9,846.5,153.5z M334,666c-91.7-91.7-91.7-240.4,0-332c91.6-91.7,240.4-91.7,332.1,0c91.7,91.7,91.6,240.4,0,332C574.4,757.7,425.7,757.7,334,666z M772.9,646.9c49.4-91.8,49.5-202.1,0-294l91-49c65.8,122,65.8,270,0.1,391.9L772.9,646.9z M696,136l-49.1,91.1c-91.8-49.4-202.1-49.4-293.8,0L304,136C426,70.3,573.9,70.3,696,136z M136.1,304l91.1,49.1c-49.4,91.8-49.4,202-0.1,293.8L136,695.9C70.3,573.9,70.3,426,136.1,304z M303.9,863.9l49.1-91c91.8,49.5,202.1,49.5,294,0L696,864C573.9,929.7,426,929.7,303.9,863.9z"/></g>
</svg>