<?xml version="1.0" encoding="utf-8"?>
<!-- Svg Vector Icons : http://www.onlinewebfonts.com/icon -->
<!DOCTYPE svg PUBLIC "-//W3C//DTD SVG 1.1//EN" "http://www.w3.org/Graphics/SVG/1.1/DTD/svg11.dtd">
<svg version="1.1" xmlns="http://www.w3.org/2000/svg" xmlns:xlink="http://www.w3.org/1999/xlink" x="0px" y="0px" viewBox="0 0 1000 1000" enable-background="new 0 0 1000 1000" xml:space="preserve">
<metadata> Svg Vector Icons : http://www.onlinewebfonts.com/icon </metadata>
<g><g transform="translate(0.000000,512.000000) scale(0.100000,-0.100000)"><path d="M4686.7,5008.2c-42.2-3.8-168.6-24.9-283.6-46c-622.8-115-1195.7-461.8-1556-940.9c-72.8-97.7-109.2-128.4-195.5-162.9c-318.1-130.3-862.3-607.4-1193.8-1050.1c-55.6-72.8-138-210.8-184-304.7c-70.9-145.6-101.6-185.9-212.7-275.9C407.8,1687.4,62.9,874.9,103.2-27.6c38.3-837.4,367.9-1513.8,965.8-1989c76.7-61.3,139.9-120.7,139.9-134.1c0-59.4,139.9-308.5,272.1-482.9c166.7-220.4,590.2-641.9,801-799.1c164.8-122.6,318.1-212.7,438.8-252.9c44.1-17.2,99.6-53.6,122.6-82.4c95.8-126.5,392.8-413.9,530.8-511.6c300.8-218.4,720.5-392.8,1115.2-465.6c274-51.7,820.1-46,1103.7,9.6c634.3,126.5,1170.8,446.5,1540.6,916c51.7,67.1,105.4,122.6,115,122.6c51.7,0,314.2,143.7,458,252.9c195.5,143.7,590.2,525,758.8,733.9c145.6,180.1,279.8,402.4,323.8,530.8c23,69,51.7,107.3,120.7,159c139.9,101.6,427.3,410.1,538.4,578.7c197.4,298.9,348.8,676.4,415.8,1046.2c51.7,276,46,822.1-9.6,1101.8c-128.4,641.9-477.1,1218.7-944.7,1565.5c-86.2,63.2-116.9,103.5-185.9,241.4c-231.9,473.3-984.9,1207.2-1387.3,1352.8c-74.7,26.8-115,57.5-187.8,149.5c-126.5,159-387.1,406.2-536.5,511.6C6081.7,4899,5391.9,5071.4,4686.7,5008.2z M5470.5,4569.4c352.6-67.1,678.3-208.9,948.5-412c159-118.8,398.6-354.5,381.3-371.7c-5.8-7.7-47.9,5.7-92,28.7c-260.6,132.2-768.4,281.7-1149.7,335.3c-289.3,40.2-820.1,40.2-1111.4,0c-396.7-55.6-881.5-199.3-1167-344.9c-55.6-26.8-107.3-46-113.1-40.2c-5.8,7.7,78.6,99.6,189.7,208.9c297,295.1,588.3,459.9,988.8,561.5C4686.7,4621.1,5123.6,4634.5,5470.5,4569.4z M5414.9,3756.9c346.8-40.2,781.8-159,1088.4-295.1l111.1-49.8l-92-130.3c-49.8-70.9-243.4-343-427.3-603.6c-228-321.9-344.9-471.4-364.1-465.6c-15.3,3.8-97.7,24.9-180.1,47.9c-325.8,86.2-749.2,88.1-1080.7,3.8c-84.3-23-166.7-46-182-51.7c-21.1-7.7-151.4,161-456.1,586.4c-235.7,327.7-427.3,601.7-427.3,609.4c5.7,21.1,385.2,170.6,569.1,222.3c201.2,59.4,423.5,105.4,601.7,124.6C4769.1,3778,5217.5,3778,5414.9,3756.9z M3431.6,2653.1l599.8-835.5l-371.7-369.8L3287.9,1078L2483.1,1651c-442.6,316.2-822.1,584.4-841.2,599.8c-36.4,23-34.5,26.8,26.8,134.1c185.9,325.8,687.9,831.6,1025.2,1036.7c61.3,36.4,118.8,67.1,126.5,67.1S3103.9,3113,3431.6,2653.1z M7312,3421.6c335.3-203.1,841.2-710.9,1025.2-1034.8c34.5-59.4,59.4-111.1,55.6-115c-3.8-3.8-383.2-274-839.3-603.6l-833.6-595.9l-367.9,367.9c-203.1,203.1-364.1,377.5-358.3,389c51.7,86.2,1182.3,1659.4,1191.9,1659.4C7193.1,3488.6,7250.6,3458,7312,3421.6z M8898.6,1727.6c350.7-369.8,536.5-797.1,588.3-1360.5c55.6-613.2-103.5-1214.9-440.7-1669c-97.7-130.3-358.3-394.7-339.2-344.9c5.7,15.3,46,116.9,88.2,224.2c304.7,764.6,371.7,1605.8,193.5,2427.8c-47.9,218.4-166.7,572.9-260.6,776.1c-36.4,78.6-65.2,145.6-65.2,149.5C8662.9,1957.6,8754.9,1877.1,8898.6,1727.6z M1272.1,1769.8c-149.5-323.8-281.7-810.6-331.5-1213C915.6,348,915.6-156,940.6-363c49.8-396.6,176.3-864.2,323.8-1193.8c32.6-70.9,49.8-128.4,42.2-128.4c-38.3,0-371.7,375.6-459.9,519.3c-308.5,502-413.9,1149.7-287.4,1784c88.1,446.5,274,804.8,590.2,1132.5c88.1,92,166.7,166.7,176.3,166.7C1333.4,1917.3,1310.4,1850.3,1272.1,1769.8z M5411.1,1879l92-23l-32.6-47.9l-30.7-49.8L6053,1147l611.3-613.2l47.9,30.7l47.9,30.7l23-109.2c42.1-193.5,47.9-496.3,15.3-682.2c-17.3-93.9-34.5-176.3-42.2-182c-5.7-5.7-28.7,0-51.7,13.4c-38.3,23-78.6-13.4-655.4-590.2c-484.8-484.8-609.4-618.9-590.2-638.1c11.5-11.5,23-32.6,23-46c0-65.2-595.9-99.6-833.6-47.9c-145.6,32.6-149.5,34.5-115,84.3c26.8,42.2,7.7,63.3-584.4,655.4c-574.9,574.9-615.1,611.3-653.4,588.3c-21.1-13.4-44.1-21.1-49.8-17.2c-21.1,23-61.3,323.8-63.2,465.6c0,134.1,46,481,67.1,502c3.8,3.8,26.8-5.7,51.7-23c44.1-28.7,51.7-23,655.3,580.6c571,571,607.4,613.2,586.4,651.5c-11.5,24.9-17.2,47.9-11.5,55.6C4589,1913.5,5202.2,1928.8,5411.1,1879z M2324.1,1263.9c298.9-210.8,548-390.9,555.7-398.6c9.6-7.7-7.7-99.6-36.4-203.1c-47.9-176.3-51.7-220.4-51.7-565.3c0-383.2,0-377.5,93.9-701.3c11.5-36.4-59.4-93.9-590.2-473.3l-603.6-431.2l-57.5,126.5c-381.3,858.5-408.2,1916.2-70.9,2782.3c126.5,323.8,120.7,314.3,172.5,279.8C1760.7,1664.4,2025.1,1476.6,2324.1,1263.9z M8365.9,1597.3c80.5-174.4,195.5-536.5,237.6-745.4c153.3-758.8,65.1-1590.4-235.7-2234.3l-59.4-128.4l-574.9,412c-316.2,226.1-588.3,419.6-603.6,429.2c-23,13.4-23,28.8,3.8,118.8c111.1,354.5,120.7,852.7,26.8,1211c-47.9,180.1-49.8,189.7-17.2,212.7c19.2,13.4,289.3,206.9,599.8,429.2c310.4,222.3,567.2,404.3,569.1,404.3C8314.1,1706.5,8337.1,1656.7,8365.9,1597.3z M3669.2-1242.5l362.2-362.2l-601.7-843.1l-599.8-843.1l-88.1,44.1c-310.4,157.1-925.5,772.2-1084.6,1086.5l-46,90.1l829.7,594c454.1,327.7,837.4,595.9,847,595.9C3299.4-880.3,3470-1043.2,3669.2-1242.5z M7570.6-1485.9l824-586.4l-57.5-109.2c-164.8-310.4-722.4-866.1-1053.9-1052l-107.3-61.3L6583.8-2467c-327.7,456.1-597.9,835.4-601.7,845c-9.6,26.8,712.8,743.5,741.6,732C6737.1-893.8,7118.4-1162,7570.6-1485.9z M4456.8-2062.6c172.5-44.1,228-49.8,536.5-51.7c320-1.9,360.2,1.9,553.8,51.7c170.5,46,212.7,49.8,224.2,28.7c7.7-13.4,201.2-283.6,429.2-599.8l413.9-574.9l-120.7-55.6c-348.8-159-783.7-266.3-1218.7-302.8c-574.9-47.9-1245.5,67.1-1762.9,302.8l-120.7,55.6l425.4,599.8c233.8,327.7,431.1,597.9,436.9,597.9C4261.3-2010.9,4351.4-2033.9,4456.8-2062.6z M3728.6-3783.4c925.5-308.5,2008.2-258.7,2905,136.1c84.3,36.4,159.1,65.2,162.9,59.4c17.3-17.3-333.4-335.4-467.5-423.5c-413.9-274-979.2-406.2-1527.2-358.3c-599.8,53.7-1080.7,270.2-1465.9,663l-124.6,126.5l162.9-69C3462.3-3687.6,3621.3-3747,3728.6-3783.4z"/></g></g>
</svg>