<?xml version="1.0" encoding="utf-8"?>
<!-- Svg Vector Icons : http://www.onlinewebfonts.com/icon -->
<!DOCTYPE svg PUBLIC "-//W3C//DTD SVG 1.1//EN" "http://www.w3.org/Graphics/SVG/1.1/DTD/svg11.dtd">
<svg version="1.1" xmlns="http://www.w3.org/2000/svg" xmlns:xlink="http://www.w3.org/1999/xlink" x="0px" y="0px" viewBox="0 0 1000 1000" enable-background="new 0 0 1000 1000" xml:space="preserve">
<metadata> Svg Vector Icons : http://www.onlinewebfonts.com/icon </metadata>
<g><g transform="matrix(1 0 0 -1 0 480)"><path d="M336.8,241.6l325.3,0c0,0,33.6,1,33.6,31.6c0,0,0,33.6-32.6,33.6c0,0,0,32.6-33.6,32.6h-32.6c0,0-31.6,1-31.6,32.6l0,64.3c0,0,0,33.6-65.3,33.6c0,0-65.3-1-65.3-32.6v-64.3c0,0-2-33.6-33.6-33.6h-32.6c0,0-31.6-1-31.6-32.6c0,0-31.6,0-31.6-32.6C305.2,274.2,304.2,241.6,336.8,241.6L336.8,241.6z M500,437.4c0,0,32.6-2,32.6-31.6c0,0,0-33.6-31.6-33.6c0,0-34.7,0-34.7,32.6C466.4,404.7,466.4,437.4,500,437.4z M792.7,339.5l-95.9,0c0,0,31.6-7.4,31.6-33.6v-64.3c0,0-1-33.6-36.7-33.6l-388.5,0c0,0-31.6,2-31.6,32.6v65.3c0,0-1,33.6,32.6,33.6l-98.9,1c0,0-64.3-1-64.3-65.3v-720c0,0,1-65.3,65.3-65.3h587.4c0,0,65.3,2,65.3,67.3v717.9C859,275.2,857.9,339.5,792.7,339.5L792.7,339.5z M697.8-166.3c0-9-7.3-16.3-16.3-16.3l-361,0c-9,0-16.3,7.3-16.3,16.3s7.3,15.3,16.3,15.3h361C690.5-151,697.8-157.3,697.8-166.3z M680-117.4l-359,0c-9.3,0-16.8,7.5-16.8,16.8c0,9.3,7.5,14.8,16.8,14.8h359c9.3,0,16.8-5.5,16.8-14.8C696.8-109.8,689.3-117.4,680-117.4z M335.8,111.1h229.4c18,0,32.6-14.6,32.6-32.6c0-18-14.6-32.6-32.6-32.6H335.8c-18,0-32.6,14.6-32.6,32.6C303.2,96.4,317.8,111.1,335.8,111.1L335.8,111.1z M319.5-20.5h360c9,0,16.3-6.3,16.3-15.3c0-9-7.3-16.3-16.3-16.3h-360c-9,0-16.3,7.3-16.3,16.3C303.2-26.8,310.5-20.5,319.5-20.5z M319.5-216.3l361,0c9,0,16.3-6.3,16.3-15.3c0-9-7.3-16.3-16.3-16.3h-361c-9,0-16.3,7.3-16.3,16.3C303.2-222.6,310.5-216.3,319.5-216.3z M826.3-443.7c0-32.6-33.6-32.6-33.6-32.6H207.3c-33.6,0-33.6,32.6-33.6,32.6v718.9c0,30.6,31.6,31.6,31.6,31.6H240l-1-32.6c0,0-31.6,1-32.6-33.6V-410c0-32.6,32.6-34.7,32.6-34.7h523.1c29.6,0,31.6,34.7,31.6,34.7v651.6c0,32.6-32.6,33.6-32.6,33.6v31.6h32.6c31.6,0,32.6-32.6,32.6-32.6V-443.7L826.3-443.7z"/></g></g>
</svg>