<?xml version="1.0" encoding="utf-8"?>
<!-- Svg Vector Icons : http://www.onlinewebfonts.com/icon -->
<!DOCTYPE svg PUBLIC "-//W3C//DTD SVG 1.1//EN" "http://www.w3.org/Graphics/SVG/1.1/DTD/svg11.dtd">
<svg version="1.1" xmlns="http://www.w3.org/2000/svg" xmlns:xlink="http://www.w3.org/1999/xlink" x="0px" y="0px" viewBox="0 0 1000 1000" enable-background="new 0 0 1000 1000" xml:space="preserve">
<metadata> Svg Vector Icons : http://www.onlinewebfonts.com/icon </metadata>
<g><g><g><path d="M712.6,148.1c0-14.7-11.9-26.6-26.6-26.6H564.7c-9.1-28.8-34.2-50.7-64.8-55C489.9,33.9,459.5,10,423.6,10h-63.7c-35.9,0-66.3,23.9-76.2,56.5c-30.6,4.3-55.7,26.1-64.8,55H97.4c-14.7,0-26.6,11.9-26.6,26.6v815.3c0,14.7,11.9,26.6,26.6,26.6h296c-1.5-5.4-2.3-11.1-2.3-17V327.2c0-35.2,28.6-63.8,63.8-63.8h257.6V148.1L712.6,148.1z M515.2,180h-247v-34.5c0-14.7,11.9-26.6,26.6-26.6h38.5V89.7c0-14.7,11.9-26.6,26.6-26.6h63.7c14.7,0,26.6,11.9,26.6,26.6v29.2h38.5c14.7,0,26.6,11.9,26.6,26.6V180L515.2,180z"/><path d="M912.6,327.7H474c-9.1,0-16.5,7.4-16.5,16.5v629.2c0,9.1,7.4,16.5,16.5,16.5h438.5c9.1,0,16.5-7.4,16.5-16.5V344.3C929.1,335.1,921.7,327.7,912.6,327.7z M873.1,821c0,7.1-5.7,12.8-12.8,12.8h-334c-7.1,0-12.8-5.7-12.8-12.8v-26.4c0-7.1,5.7-12.8,12.8-12.8h334c7.1,0,12.8,5.7,12.8,12.8V821z M873.1,672c0,7.1-5.7,12.8-12.8,12.8h-334c-7.1,0-12.8-5.7-12.8-12.8v-26.4c0-7,5.7-12.8,12.8-12.8h334c7.1,0,12.8,5.7,12.8,12.8V672z M873.1,523.1c0,7.1-5.7,12.8-12.8,12.8h-334c-7.1,0-12.8-5.7-12.8-12.8v-26.4c0-7.1,5.7-12.8,12.8-12.8h334c7.1,0,12.8,5.7,12.8,12.8V523.1z"/></g></g><g></g><g></g><g></g><g></g><g></g><g></g><g></g><g></g><g></g><g></g><g></g><g></g><g></g><g></g><g></g></g>
</svg>