<?xml version="1.0" encoding="utf-8"?>
<!-- Svg Vector Icons : http://www.onlinewebfonts.com/icon -->
<!DOCTYPE svg PUBLIC "-//W3C//DTD SVG 1.1//EN" "http://www.w3.org/Graphics/SVG/1.1/DTD/svg11.dtd">
<svg version="1.1" xmlns="http://www.w3.org/2000/svg" xmlns:xlink="http://www.w3.org/1999/xlink" x="0px" y="0px" viewBox="0 0 1000 1000" enable-background="new 0 0 1000 1000" xml:space="preserve">
<metadata> Svg Vector Icons : http://www.onlinewebfonts.com/icon </metadata>
<g><path d="M252.5,745.5l346.8-157.3l152.3-341l-341.5,152L252.5,745.5L252.5,745.5z M342.4,655.9l101.4-223l0.2-0.2l121.6,121.5v0.2L342.4,655.9L342.4,655.9z"/><path d="M500,10C229.4,10,10,229.4,10,500c0,270.6,219.4,490,490,490c270.6,0,490-219.4,490-490C990,229.4,770.6,10,500,10z M500,936.6C258.9,936.6,63.4,741.1,63.4,500C63.4,258.9,258.9,63.4,500,63.4S936.6,258.9,936.6,500C936.6,741.1,741.1,936.6,500,936.6z"/></g>
</svg>