<?xml version="1.0" encoding="utf-8"?>
<!-- Svg Vector Icons : http://www.onlinewebfonts.com/icon -->
<!DOCTYPE svg PUBLIC "-//W3C//DTD SVG 1.1//EN" "http://www.w3.org/Graphics/SVG/1.1/DTD/svg11.dtd">
<svg version="1.1" xmlns="http://www.w3.org/2000/svg" xmlns:xlink="http://www.w3.org/1999/xlink" x="0px" y="0px" viewBox="0 0 1000 1000" enable-background="new 0 0 1000 1000" xml:space="preserve">
<metadata> Svg Vector Icons : http://www.onlinewebfonts.com/icon </metadata>
<g><g transform="translate(0.000000,511.000000) scale(0.100000,-0.100000)"><path d="M4412.7,4975.8c-558.8-68.6-1051.5-215.7-1556.4-463.3c-517.2-254.9-853-490.2-1269.7-897.1c-426.5-411.8-720.6-818.7-987.8-1360.4c-906.9-1845.7-556.4-4059,882.4-5549.3c1475.6-1527.1,3762.4-1929,5664.5-997.6c1360.4,669.1,2331,1902,2644.7,3372.7c230.4,1083.4,95.6,2188.8-387.3,3174.2c-754.9,1536.8-2206,2549.1-3916.9,2733C5177.5,5020,4736.3,5015.1,4412.7,4975.8z M5746.1,3958.6C6631,3782.1,7432.5,3311.5,7993.8,2640c443.7-531.9,723.1-1117.7,860.4-1806.5c78.4-387.3,78.4-1061.3,0-1451.1c-318.6-1598.1-1527-2806.5-3125.2-3125.2c-365.2-73.5-1058.9-78.4-1414.3-9.8c-1436.3,274.5-2571.2,1257.4-3032,2625.1C1138.1-696,1093.9-404.3,1093.9,110.4c0,372.6,9.8,502.5,53.9,728c345.6,1725.6,1728,2990.3,3473.2,3179.1C4846.6,4042,5508.4,4007.7,5746.1,3958.6z"/><path d="M2525.4,2578.7c0-4.9,402-718.2,889.7-1583.4l892.2-1576.1l1576-892.2c867.7-490.2,1581-889.7,1585.9-884.9c2.4,4.9-394.6,718.2-884.9,1585.9L5694.6,804.1l-1576,889.8C3250.9,2184,2537.6,2586,2532.7,2586C2530.3,2586,2525.4,2581.1,2525.4,2578.7z M5155.4,468.3c252.5-105.4,313.8-433.9,117.7-629.9c-159.3-159.3-384.8-159.3-544.1,0C4425,139.8,4760.8,634.9,5155.4,468.3z"/></g></g>
</svg>