<?xml version="1.0" encoding="utf-8"?>
<!-- Svg Vector Icons : http://www.onlinewebfonts.com/icon -->
<!DOCTYPE svg PUBLIC "-//W3C//DTD SVG 1.1//EN" "http://www.w3.org/Graphics/SVG/1.1/DTD/svg11.dtd">
<svg version="1.1" xmlns="http://www.w3.org/2000/svg" xmlns:xlink="http://www.w3.org/1999/xlink" x="0px" y="0px" viewBox="0 0 1000 1000" enable-background="new 0 0 1000 1000" xml:space="preserve">
<metadata> Svg Vector Icons : http://www.onlinewebfonts.com/icon </metadata>
<g><g transform="translate(0.000000,511.000000) scale(0.100000,-0.100000)"><path d="M896.2,3952.9c-45.4-27.7-102.7-83-128.4-124.5l-45.4-73.1l-9.9-3546.6l-9.9-3546.6H400.3H100v-221.3v-223.3h4900h4900v217.3v217.3l-112.6,2c-63.2,2-235.1,3.9-381.3,3.9l-266.7,4l-9.9,2770.1l-9.9,2768.1l-47.4,51.4c-27.6,27.7-81,59.3-118.5,71.1c-43.5,11.9-575,19.8-1379.1,19.8h-1308l-5.9,707.3l-5.9,707.3l-55.3,83c-29.6,45.4-88.9,100.8-132.4,122.5c-77.1,39.5-108.7,39.5-2582.4,39.5H979.2L896.2,3952.9z M5944.4,3682.3c17.8-17.8,23.7-827.9,23.7-3524.8v-3501.1h-879.2l-879.2,2v887.1c0,982,0,978-124.5,1053.1c-59.3,37.5-102.7,39.5-596.7,39.5c-486,0-539.4-4-594.7-37.5c-120.5-73.1-116.6-37.5-122.5-1031.4l-5.9-912.8l-873.3,4l-873.3,2l-5.9,3495.2c-2,2566.6,2,3501.1,17.8,3520.9C1062.2,3715.8,5906.9,3719.8,5944.4,3682.3z M7327.5,1540.5c43.5-27.7,43.5-33.6,43.5-492c0-393.2-4-466.3-31.6-492c-25.7-25.7-86.9-31.6-361.6-31.6c-298.3,0-335.9,4-365.5,35.6c-27.6,33.6-31.6,90.9-27.6,499.9l5.9,460.4l47.4,25.7C6711,1582,7268.2,1578,7327.5,1540.5z M8639.4,1536.5c19.8-19.8,27.6-140.3,31.6-478.1c7.9-580.9,43.5-533.5-401.1-533.5c-440.6,0-405-45.4-405,519.6c0,450.5,5.9,488,79,513.7c15.8,5.9,173.9,7.9,349.7,5.9C8526.8,1562.2,8621.6,1554.3,8639.4,1536.5z M7347.3-32.3c17.8-17.8,23.7-154.1,23.7-494c0-442.6-2-470.2-37.5-490c-21.7-11.8-175.8-19.7-359.6-19.7c-270.7,0-326,5.9-357.6,33.6c-31.6,29.6-35.6,71.1-35.6,474.2c0,268.7,7.9,458.4,19.8,482.1c19.7,35.6,45.4,37.5,371.4,37.5C7218.8-8.5,7331.4-16.5,7347.3-32.3z M8643.4-52c25.7-37.5,31.6-116.6,31.6-470.2c0-353.7-5.9-432.7-31.6-470.2c-29.6-41.5-41.5-43.5-373.4-43.5s-343.8,2-373.4,43.5c-25.7,37.5-31.6,116.6-31.6,470.2c0,353.7,5.9,432.7,31.6,470.2C7926.2-10.5,7938-8.5,8270-8.5S8613.8-10.5,8643.4-52z M7347.3-1593.1c33.6-33.6,33.6-946.4,0-980c-15.8-15.8-128.4-23.7-375.4-23.7c-326,0-351.7,2-371.4,37.6c-11.9,23.7-19.8,215.4-19.8,484.1c0,377.4,4,448.5,31.6,474.2c25.7,25.7,87,31.6,371.5,31.6C7220.8-1569.4,7331.4-1577.3,7347.3-1593.1z M8643.4-1612.9c25.7-37.5,31.6-116.6,31.6-470.2c0-353.7-5.9-432.7-31.6-470.2c-29.6-41.5-41.5-43.5-373.4-43.5s-343.8,2-373.4,43.5c-25.7,37.5-31.6,116.6-31.6,470.2c0,353.7,5.9,432.7,31.6,470.2c29.6,41.5,41.5,43.5,373.4,43.5S8613.8-1571.4,8643.4-1612.9z M3909.4-2502l-5.9-835.8l-409-2l-411-4v837.7v837.8h414.9h414.9L3909.4-2502z"/><path d="M1392.2,3160.6c-122.5-59.3-126.5-83-126.5-699.4c0-454.4,5.9-565.1,29.6-612.5c59.3-114.6,75.1-118.5,567.1-118.5h450.5l63.2,57.3l65.2,57.3l5.9,584.8c5.9,650,2,671.8-122.5,731C2229.9,3206.1,1485,3206.1,1392.2,3160.6z M2174.6,2451.3V1987h-316.1h-316.1v464.3v464.3h316.1h316.1V2451.3z"/><path d="M3010.4,3152.7c-33.6-19.8-73.1-57.3-86.9-81c-31.6-61.3-31.6-1142,0-1221c47.4-110.6,94.8-120.5,563.1-120.5c454.4,0,499.9,7.9,559.2,96.8c31.6,45.4,35.6,114.6,41.5,596.7c7.9,610.5,0,656-118.5,729.1c-59.3,35.6-98.8,39.5-480.1,39.5C3113.1,3192.3,3067.7,3188.3,3010.4,3152.7z M3814.5,2451.3V1987h-326h-326v464.3v464.3h326h326V2451.3z"/><path d="M4652.3,3160.6c-122.5-59.3-126.5-83-126.5-699.4c0-454.4,5.9-565.1,29.6-612.5c59.3-114.6,75.1-118.5,567.1-118.5H5573l63.2,57.3l65.2,57.3l5.9,584.8c5.9,650,2,671.8-122.5,731C5490,3206.1,4745.1,3206.1,4652.3,3160.6z M5434.7,2451.3V1987h-316.1h-316.1v464.3v464.3h316.1h316.1V2451.3z"/><path d="M1392.2,1066.3c-122.5-59.3-126.5-83-126.5-699.4c0-454.4,5.9-565.1,29.6-612.5c59.3-114.6,75.1-118.5,567.1-118.5h450.5l63.2,57.3l65.2,57.3l5.9,584.8c5.9,654,2,681.7-124.5,735C2222,1111.7,1479.1,1109.8,1392.2,1066.3z M2174.6,357v-464.3h-316.1h-316.1V357v464.3h316.1h316.1V357z"/><path d="M3010.4,1058.4c-33.6-19.8-73.1-57.3-85-79c-19.8-35.6-31.6-780.4-21.7-1161.8c2-25.7,31.6-77.1,69.2-114.6l67.2-67.2h436.7c464.3,0,509.8,7.9,569,96.8c31.6,45.4,35.6,114.6,41.5,584.8c7.9,602.6-2,659.9-112.6,735c-65.2,43.5-83,45.4-484.1,45.4C3113.1,1097.9,3067.7,1094,3010.4,1058.4z M3814.5,357v-464.3h-326h-326V357v464.3h326h326V357z"/><path d="M4652.3,1066.3c-122.5-59.3-126.5-83-126.5-699.4c0-594.7,5.9-632.3,102.7-699.4c65.2-47.4,914.8-47.4,980,0c96.8,67.2,102.7,104.7,102.7,699.4c0,620.4-5.9,652-128.4,703.4C5482.1,1111.7,4739.2,1109.8,4652.3,1066.3z M5434.7,357v-464.3h-316.1h-316.1V357v464.3h316.1h316.1V357z"/><path d="M1388.2-1030c-118.5-57.3-122.5-83-122.5-701.4c0-523.6,2-563.1,39.5-624.4c21.7-35.6,63.2-73.1,90.9-83c27.7-11.8,243-19.8,478.1-19.8c614.5,0,576.9-47.4,576.9,731c0,610.5-5.9,642.1-118.5,701.4C2245.7-980.6,1481.1-984.6,1388.2-1030z M2174.6-1737.4v-464.3h-316.1h-316.1v464.3v464.3h316.1h316.1V-1737.4z"/><path d="M4640.4-1028c-108.7-57.3-114.6-92.9-114.6-703.4c0-523.6,2-563.1,39.5-624.4c21.7-35.6,63.2-73.1,90.9-83c65.2-25.7,859.5-25.7,924.7,0c27.6,9.9,69.2,47.4,90.9,83c37.5,61.3,39.5,100.8,39.5,624.4c0,614.5-5.9,646.1-118.5,705.4C5509.8-982.6,4719.4-984.6,4640.4-1028z M5434.7-1737.4v-464.3h-316.1h-316.1v464.3v464.3h316.1h316.1V-1737.4z"/></g></g>
</svg>