<?xml version="1.0" encoding="utf-8"?>
<!-- Svg Vector Icons : http://www.onlinewebfonts.com/icon -->
<!DOCTYPE svg PUBLIC "-//W3C//DTD SVG 1.1//EN" "http://www.w3.org/Graphics/SVG/1.1/DTD/svg11.dtd">
<svg version="1.1" xmlns="http://www.w3.org/2000/svg" xmlns:xlink="http://www.w3.org/1999/xlink" x="0px" y="0px" viewBox="0 0 1000 1000" enable-background="new 0 0 1000 1000" xml:space="preserve">
<metadata> Svg Vector Icons : http://www.onlinewebfonts.com/icon </metadata>
<g><path d="M115.2,990V414.8c0-47.1,38.3-85.2,85.5-85.2l0,0v-85.2c0-23.6,19.2-42.6,42.7-42.6h42.8V31.3c0-11.8,9.6-21.3,21.4-21.3c11.8,0,21.4,9.5,21.4,21.3v170.4h42.7c23.6,0,42.7,19.1,42.7,42.6v85.2l0,0l0,0c47.2,0,85.5,38.1,85.5,85.2v170.4h149.7V457.4h85.5v-63.9h128.2v63.9h21.4V990H115.2z M371.7,265.7c0-11.7-9.6-21.3-21.4-21.3h-85.5c-11.8,0-21.4,9.5-21.4,21.3v63.9h128.3V265.7L371.7,265.7z M457.2,414.8c0-23.6-19.1-42.6-42.7-42.6H200.7c-23.6,0-42.7,19.1-42.7,42.6v532.6h299.3V414.8z M649.6,627.8H500v319.6h149.7V627.8z M842.1,500H692.4v447.4h149.7V500L842.1,500z M756.5,563.9h21.4c11.8,0,21.4,9.5,21.4,21.3v21.3c0,11.8-9.6,21.3-21.4,21.3h-21.4c-11.8,0-21.3-9.5-21.3-21.3v-21.3C735.2,573.5,744.7,563.9,756.5,563.9z M756.5,691.7h21.4c11.8,0,21.4,9.5,21.4,21.3v21.3c0,11.8-9.6,21.3-21.4,21.3h-21.4c-11.8,0-21.3-9.5-21.3-21.3v-21.3C735.2,701.3,744.7,691.7,756.5,691.7z M756.5,819.6h21.4c11.8,0,21.4,9.5,21.4,21.3v21.3c0,11.7-9.6,21.3-21.4,21.3h-21.4c-11.8,0-21.3-9.5-21.3-21.3v-21.3C735.2,829.1,744.7,819.6,756.5,819.6z M564.1,691.7h21.4c11.8,0,21.3,9.5,21.3,21.3v21.3c0,11.8-9.5,21.3-21.3,21.3h-21.4c-11.8,0-21.4-9.5-21.4-21.3v-21.3C542.7,701.3,552.3,691.7,564.1,691.7z M564.1,819.6h21.4c11.8,0,21.3,9.5,21.3,21.3v21.3c0,11.7-9.5,21.3-21.3,21.3h-21.4c-11.8,0-21.4-9.5-21.4-21.3v-21.3C542.7,829.1,552.3,819.6,564.1,819.6z M371.7,883.5h-21.4c-11.8,0-21.3-9.5-21.3-21.3v-21.3c0-11.8,9.5-21.3,21.3-21.3h21.4c11.8,0,21.4,9.5,21.4,21.3v21.3C393.1,874,383.5,883.5,371.7,883.5z M371.7,755.7h-21.4c-11.8,0-21.3-9.5-21.3-21.3v-21.3c0-11.8,9.5-21.3,21.3-21.3h21.4c11.8,0,21.4,9.5,21.4,21.3v21.3C393.1,746.1,383.5,755.7,371.7,755.7z M371.7,627.8h-21.4c-11.8,0-21.3-9.5-21.3-21.3v-21.3c0-11.8,9.5-21.3,21.3-21.3h21.4c11.8,0,21.4,9.5,21.4,21.3v21.3C393.1,618.3,383.5,627.8,371.7,627.8z M371.7,500h-21.4c-11.8,0-21.3-9.5-21.3-21.3v-21.3c0-11.8,9.5-21.3,21.3-21.3h21.4c11.8,0,21.4,9.6,21.4,21.3v21.3C393.1,490.5,383.5,500,371.7,500z M264.8,883.5h-21.4c-11.8,0-21.3-9.5-21.3-21.3v-21.3c0-11.8,9.6-21.3,21.3-21.3h21.4c11.8,0,21.4,9.5,21.4,21.3v21.3C286.2,874,276.6,883.5,264.8,883.5z M264.8,755.7h-21.4c-11.8,0-21.3-9.5-21.3-21.3v-21.3c0-11.8,9.6-21.3,21.3-21.3h21.4c11.8,0,21.4,9.5,21.4,21.3v21.3C286.2,746.1,276.6,755.7,264.8,755.7z M264.8,627.8h-21.4c-11.8,0-21.3-9.5-21.3-21.3v-21.3c0-11.8,9.6-21.3,21.3-21.3h21.4c11.8,0,21.4,9.5,21.4,21.3v21.3C286.2,618.3,276.6,627.8,264.8,627.8z M264.8,500h-21.4c-11.8,0-21.3-9.5-21.3-21.3v-21.3c0-11.8,9.6-21.3,21.3-21.3h21.4c11.8,0,21.4,9.6,21.4,21.3v21.3C286.2,490.5,276.6,500,264.8,500z"/></g>
</svg>