<?xml version="1.0" encoding="utf-8"?>
<!-- Svg Vector Icons : http://www.onlinewebfonts.com/icon -->
<!DOCTYPE svg PUBLIC "-//W3C//DTD SVG 1.1//EN" "http://www.w3.org/Graphics/SVG/1.1/DTD/svg11.dtd">
<svg version="1.1" xmlns="http://www.w3.org/2000/svg" xmlns:xlink="http://www.w3.org/1999/xlink" x="0px" y="0px" viewBox="0 0 1000 1000" enable-background="new 0 0 1000 1000" xml:space="preserve">
<metadata> Svg Vector Icons : http://www.onlinewebfonts.com/icon </metadata>
<g><path d="M482.5,725.3c0-98.8,50.4-185.8,126.8-236.9c19.6-22.7,32.9-50,41.7-79.1c46.7-9.1,50.9-81.8,50.9-81.8c4.8-41.1-19.3-51.2-34.8-53.5c-1.9-171.9-61.7-264-229.5-264c-167.8,0-227.6,92.1-229.5,264c-15.5,2.3-39.6,12.4-34.8,53.5c0,0,4.1,72.6,50.9,81.8c9,29.8,22.7,57.7,43.1,80.7c13.9,15.8,30.5,32.6,38.5,52.4c11.9,29.5,5,65.5-8,93.4c-26.2,56.1-80.5,62.5-133.9,76.8c-26.2,7-53.6,13.7-76.9,28c-45.2,27.8-54.9,79.3-57.9,128.6c-1.7,29.2-1.1,7.5-1.1,35c0.5,13,5.4,48.8,43.9,58.1c62.5,13.6,187.5,27.7,365.8,27.7c82.1,0,153.6,0.2,212.8-5.1C551.4,940.3,482.5,840.8,482.5,725.3z"/><path d="M972.1,725.3c0,113.2-91.8,205-205,205c-113.2,0-205-91.8-205-205c0-113.2,91.8-205,205-205C880.3,520.3,972.1,612.1,972.1,725.3z M889.2,697.5h-94.3v-94.3c0-15.3-12.4-27.8-27.8-27.8c-15.3,0-27.8,12.4-27.8,27.8v94.3H645c-15.3,0-27.8,12.4-27.8,27.8S629.7,753,645,753h94.3v94.3c0,15.3,12.4,27.8,27.8,27.8c15.3,0,27.8-12.4,27.8-27.8V753h94.3c15.3,0,27.8-12.4,27.8-27.8S904.5,697.5,889.2,697.5z"/></g>
</svg>