<?xml version="1.0" encoding="utf-8"?>
<!-- Svg Vector Icons : http://www.onlinewebfonts.com/icon -->
<!DOCTYPE svg PUBLIC "-//W3C//DTD SVG 1.1//EN" "http://www.w3.org/Graphics/SVG/1.1/DTD/svg11.dtd">
<svg version="1.1" xmlns="http://www.w3.org/2000/svg" xmlns:xlink="http://www.w3.org/1999/xlink" x="0px" y="0px" viewBox="0 0 1000 1000" enable-background="new 0 0 1000 1000" xml:space="preserve">
<metadata> Svg Vector Icons : http://www.onlinewebfonts.com/icon </metadata>
<g><path d="M500,683.8c132.8,0,245-133.3,245-290.9c0-157.7-112.2-290.9-245-290.9c-132.8,0-245,133.2-245,290.9C255,550.5,367.2,683.8,500,683.8 M500,163.2c99.6,0,183.7,105.1,183.7,229.7c0,124.5-84.2,229.7-183.7,229.7c-99.6,0-183.7-105.2-183.7-229.7C316.3,268.3,400.4,163.2,500,163.2"/><path d="M72.8,735.3L11.6,919c-3.1,9.4-1.6,19.6,4.2,27.6c5.8,8.1,15,12.7,24.9,12.7h918.7c9.9,0,19.1-4.7,24.8-12.7c5.7-8,7.3-18.2,4.2-27.6l-61.3-183.7c-3.2-9.6-10.9-17-20.6-19.8l-214.4-61.2c-7.4-2.1-15.2-1.4-22.1,2l-170,85.1l-170.1-85.1c-6.9-3.4-14.7-4.1-22.1-2L93.5,715.5C83.7,718.3,76,725.7,72.8,735.3 M313.2,716.4L486.3,803c8.6,4.3,18.8,4.3,27.4,0l173.1-86.6L874.2,770l42.7,128.1H83.1L125.8,770L313.2,716.4z"/><path d="M959.4,132.5h-61.2V71.3c0-16.9-13.7-30.6-30.7-30.6c-16.9,0-30.6,13.8-30.6,30.6v61.2h-61.3c-16.9,0-30.6,13.8-30.6,30.7c0,16.9,13.7,30.6,30.6,30.6h61.3V255c0,16.9,13.7,30.6,30.6,30.6c16.9,0,30.7-13.7,30.7-30.6v-61.2h61.2c16.9,0,30.6-13.7,30.6-30.6C990,146.2,976.3,132.5,959.4,132.5"/></g>
</svg>