<?xml version="1.0" encoding="utf-8"?>
<!-- Svg Vector Icons : http://www.onlinewebfonts.com/icon -->
<!DOCTYPE svg PUBLIC "-//W3C//DTD SVG 1.1//EN" "http://www.w3.org/Graphics/SVG/1.1/DTD/svg11.dtd">
<svg version="1.1" xmlns="http://www.w3.org/2000/svg" xmlns:xlink="http://www.w3.org/1999/xlink" x="0px" y="0px" viewBox="0 0 1000 1000" enable-background="new 0 0 1000 1000" xml:space="preserve">
<metadata> Svg Vector Icons : http://www.onlinewebfonts.com/icon </metadata>
<g><g transform="translate(0.000000,511.000000) scale(0.100000,-0.100000)"><path d="M3760.4,4839.9c-445.7-124.7-864.9-282.1-864.9-325.1c0-12.3,49.1-233.1,110.4-492.8c59.3-257.6,104.3-480.5,100.2-490.7c-4.1-12.3-59.3-53.2-124.7-90c-132.9-79.7-374.2-253.5-527.5-384.4c-57.2-49.1-110.4-87.9-116.5-87.9c-6.1,0-198.3,114.5-427.3,255.6c-229,141.1-429.4,255.6-445.7,255.6c-96.1-2.1-785.1-956.9-742.2-1028.4c8.2-16.4,177.9-169.7,374.2-341.4c196.3-171.7,361.9-321,363.9-331.2c4.1-8.2-24.5-98.1-63.4-196.3c-69.5-169.7-151.3-423.2-198.3-611.3c-12.3-47-28.6-90-36.8-96.1c-8.2-4.1-231-24.5-494.8-45c-292.4-20.4-490.7-45-507.1-59.3c-45-40.9-75.7-590.9-51.1-938.5c12.3-165.6,28.6-308.7,38.8-319c10.2-8.2,233.1-36.8,494.8-61.3c261.7-22.5,486.6-47,500.9-53.2c14.3-4.1,49.1-108.4,79.7-231c30.7-120.6,92-323.1,141.1-449.8c83.8-224.9,83.8-231.1,47-265.8c-22.5-20.4-192.2-167.7-380.3-327.1c-190.1-159.5-343.5-304.6-343.5-319c0-98.1,595-946.7,715.6-1022.3c12.3-8.2,216.7,102.2,453.9,243.3c237.2,143.1,441.6,255.6,453.9,249.4c12.3-4.1,94.1-69.5,184-145.2c87.9-73.6,255.6-200.4,374.2-278.1c155.4-104.3,212.6-153.3,206.5-177.9c-110.4-421.2-222.9-950.7-206.5-967.1c28.6-28.6,347.6-163.6,547.9-233.1c206.5-71.6,605.2-171.8,633.8-161.5c12.3,6.2,108.4,214.7,214.7,464.1l194.2,453.9l500.9-2l498.9-2.1l190.2-458l188.1-458l108.4,4.1c59.3,2,224.9,36.8,368,75.7c253.5,69.5,697.2,235.1,738.1,276c12.3,12.3-18.4,184-85.9,472.3c-57.2,249.5-104.3,474.4-104.3,503c0,32.7,20.4,57.3,67.5,81.8c116.5,61.3,417.1,269.9,568.4,396.7c79.7,67.5,153.3,122.7,163.6,122.7c8.2,0,202.4-114.5,431.4-255.6c229-141.1,425.3-255.6,439.6-255.6c81.8,0,742.2,891.5,742.2,1003.9c0,20.4-149.2,165.6-368,355.8c-202.4,175.8-368,335.3-368,353.7c0,18.4,32.7,106.3,69.5,198.3c38.8,90,100.2,269.9,134.9,398.7c104.3,376.2,30.7,331.2,613.4,378.3l500.9,40.9l14.3,92c47,335.3,32.7,1116.4-22.5,1171.6c-12.3,12.3-237.2,40.9-500.9,63.4c-263.7,24.5-490.7,53.2-500.9,63.4c-10.2,12.3-38.8,96.1-61.3,186.1c-47,184-173.8,558.2-218.8,646.1c-16.4,30.7-28.6,65.4-28.6,75.6c0,12.3,167.7,165.6,374.2,341.5c204.5,175.8,374.1,335.3,378.3,353.7c12.3,83.8-592.9,932.3-721.8,1008c-12.3,8.2-206.5-96.1-447.8-239.2c-233-141.1-435.5-255.6-447.7-255.6c-14.3,0-83.9,51.1-157.5,114.5c-73.6,63.4-243.3,188.1-378.3,278.1c-134.9,87.9-247.4,169.7-251.5,179.9c-4.1,8.2,47,229,110.4,490.7c96.1,396.7,110.4,478.4,87.9,498.9c-110.4,98.1-1018.2,392.6-1157.2,376.2c-45-6.1-71.6-55.2-241.3-451.8c-104.3-245.4-194.2-449.8-200.4-456c-18.4-20.4-956.9-14.3-975.3,6.1c-10.2,8.2-98.1,214.7-200.4,455.9C4095.7,4978.9,4142.7,4948.2,3760.4,4839.9z M3588.6,2621.5c192.2-92,380.3-233.1,470.3-353.7c143.1-192.2,153.3-222.9,157.4-509.1c2-141.1,14.3-290.3,26.6-327.1c14.3-45,147.2-192.2,390.5-435.5l368-368l368,368c233.1,233.1,382.4,398.7,408.9,453.9c42.9,90,81.8,361.9,81.8,566.3c0,265.8,114.5,425.3,404.8,568.4l173.8,87.9h257.6c486.6,0,545.9-65.4,226.9-249.5c-257.6-147.2-327.1-220.8-327.1-347.6c0-145.2,139.1-378.3,259.7-437.5c120.6-57.2,175.8-45,433.4,104.3c116.5,69.5,226.9,120.6,245.4,118.6c26.6-6.1,32.7-32.7,30.7-130.8c-2-100.2-16.4-149.2-75.6-263.8c-108.4-206.5-237.2-359.9-382.4-455.9c-163.6-110.4-229-126.8-503-124.7c-157.4,2-247.4-8.2-296.5-28.6c-38.9-16.4-226.9-190.2-427.3-390.5l-357.8-359.9l368-368c233.1-233.1,398.7-382.3,453.9-408.9c92-42.9,361.9-81.8,578.6-81.8c253.5,0,425.3-128.8,570.4-429.4c71.6-151.3,73.6-157.4,73.6-408.9c0-290.3-30.7-429.4-92-429.4c-28.6,0-73.6,61.3-163.6,214.7c-153.3,261.7-212.6,316.9-343.5,316.9c-143.1,0-378.3-139-435.5-259.7c-57.3-120.6-45-175.8,104.3-435.5c69.5-116.6,120.6-226.9,118.6-245.4c-12.3-61.3-188.1-51.1-337.4,20.4c-192.2,90-382.3,231-474.4,353.7c-141.1,190.2-151.3,220.8-165.6,545.9c-6.1,163.6-22.5,314.9-34.7,337.4c-14.3,22.5-186.1,202.4-382.4,398.7l-359.9,357.8l-370.1-368c-233.1-231-384.4-398.7-406.9-449.8c-42.9-94-81.8-361.9-81.8-572.5c0-251.5-120.6-427.3-388.5-562.3c-169.7-83.8-302.6-108.4-529.6-96.1c-421.2,24.5-449.8,77.7-134.9,259.7c261.7,153.3,316.9,212.6,316.9,343.5c0,143.1-139,378.3-259.7,435.5c-120.6,57.2-175.8,45-435.5-104.3c-116.5-69.5-227-120.6-245.4-118.6c-22.5,4.1-32.7,36.8-36.8,110.4c-12.3,198.3,229,582.7,466.2,740.1c163.6,110.4,229,126.8,507.1,126.8c151.3,0,253.5,10.2,296.5,28.6c36.8,16.3,227,190.1,423.2,388.5l357.8,359.8l-368,368c-233.1,233.1-398.7,382.4-453.9,408.9c-92,42.9-361.9,81.8-578.6,81.8c-241.3,0-419.1,126.8-552,388.5c-83.8,169.7-108.4,302.6-96.1,529.6c24.5,415.1,79.7,447.8,253.5,145.2c145.2-257.6,220.8-327.1,345.5-327.1c112.5,0,321,104.3,404.8,204.5c108.4,128.8,94.1,210.6-87.9,521.4c-139,235.1-139,255.6,16.4,255.6C3425,2682.8,3502.7,2662.4,3588.6,2621.5z"/></g></g>
</svg>