<?xml version="1.0" encoding="utf-8"?>
<!-- Svg Vector Icons : http://www.onlinewebfonts.com/icon -->
<!DOCTYPE svg PUBLIC "-//W3C//DTD SVG 1.1//EN" "http://www.w3.org/Graphics/SVG/1.1/DTD/svg11.dtd">
<svg version="1.1" xmlns="http://www.w3.org/2000/svg" xmlns:xlink="http://www.w3.org/1999/xlink" x="0px" y="0px" viewBox="0 0 1000 1000" enable-background="new 0 0 1000 1000" xml:space="preserve">
<metadata> Svg Vector Icons : http://www.onlinewebfonts.com/icon </metadata>
<g><g transform="translate(0.000000,512.000000) scale(0.100000,-0.100000)"><path d="M7596.9,5003.4c-134-23-348.4-90-490.1-155.1c-518.8-235.5-1039.6-832.8-1217.6-1395.7c-40.2-130.2-55.5-222.1-67-459.5c-9.6-162.7-26.8-331.2-38.3-373.3c-38.3-128.3-151.3-325.5-258.5-449.9c-120.6-137.8-139.8-201-95.7-294.8c32.5-67,55.5-80.4,258.4-166.6c225.9-93.8,463.3-256.5,685.4-467.1c162.7-151.2,235.5-262.3,292.9-436.5c65.1-199.1,180-269.9,319.7-197.2c28.7,15.3,132.1,109.1,229.7,208.7l178,180l128.3-24.9c155.1-30.6,484.4-34.5,654.8-7.7c794.5,126.4,1458.8,731.3,1657.9,1510.5c65.1,248.9,84.2,618.4,38.3,706.4c-34.5,67-118.7,118.7-193.4,118.7c-32.5,0-268-130.2-627.9-346.5c-411.6-247-585.8-342.7-614.6-335c-67,17.2-254.6,178.1-346.5,294.8c-99.6,126.4-193.4,335-210.6,474.8l-13.4,95.7l618.4,369.5c340.8,204.9,639.5,388.6,662.4,409.7c53.6,47.9,74.6,149.3,44,222.1c-45.9,111-430.8,346.5-727.5,442.3C8203.8,5011,7836.2,5041.7,7596.9,5003.4z"/><path d="M1256.1,4982.3c-122.5-28.7-279.5-95.7-392.5-166.6c-149.3-93.8-511.2-467.1-599.2-616.5c-208.7-358-218.3-769.6-28.7-1154.4C312.2,2891.7,339,2863,1503,1695.1c652.8-656.7,1257.8-1248.3,1342.1-1315.3c168.5-132.1,346.5-235.5,501.6-289.1c55.5-19.2,141.7-65.1,191.5-101.5c91.9-70.8,122.5-120.6,281.4-465.2c38.3-80.4,116.8-208.7,176.1-287.2c245-319.7,386.7-421.2,591.6-423.1c153.2,0,235.5,38.3,384.8,181.9l124.4,118.7l1173.6-1173.6l1175.5-1175.5l7.7-212.5c5.7-185.7,13.4-225.9,59.3-319.7c91.9-189.5,155.1-231.7,968.7-637.5c411.6-206.7,771.5-375.2,798.3-375.2c80.4,0,143.6,45.9,363.8,271.8c222.1,224,256.6,269.9,256.6,342.7c0,23-172.3,386.7-384.8,809.8c-413.5,827.1-444.2,873-629.9,964.9c-91.9,44-134,51.7-317.8,57.4l-212.5,7.7L7179.5-1149.8L6005.9,23.8l118.7,124.4c141.7,145.5,178,224,178,375.2c1.9,204.9-91.9,344.6-375.2,564.8c-183.8,143.6-281.4,201-459.5,269.9c-254.6,99.6-361.8,204.8-448,438.4c-61.3,162.7-141.7,302.5-279.5,478.6C4572,2487.7,2297.6,4750.7,2171.2,4829.1c-185.7,114.9-350.3,160.8-608.8,166.6C1436,4999.5,1298.2,4993.8,1256.1,4982.3z"/><path d="M3078.7-309.3c-30.6-15.3-99.6-68.9-153.2-116.8c-195.3-176.1-415.4-248.9-846.2-275.7c-379.1-24.9-587.8-76.6-871.1-220.2c-346.5-174.2-675.8-499.7-867.3-851.9C151.4-2124.3,59.5-2601,117-2951.3c13.4-90,30.6-126.3,76.6-166.6c107.2-97.6,122.5-91.9,857.7,348.4c369.5,222.1,681.6,402,695,402c44,0,264.2-174.2,342.7-271.9c103.4-128.3,197.2-321.6,229.7-472.9c13.4-65.1,21.1-120.6,17.2-124.4c-3.8-3.8-314-189.5-687.3-413.5c-373.3-224-698.8-426.9-721.8-453.7c-32.5-34.5-44-68.9-44-134c0-76.6,9.6-95.7,70.8-153.2c105.3-95.7,463.3-266.1,685.4-325.4c168.5-44,227.8-49.8,488.2-49.8c268,0,314,3.8,465.2,49.8c91.9,28.7,224,78.5,294.8,109.1c522.7,237.4,1043.4,830.9,1221.4,1397.6c42.1,130.2,53.6,220.2,67,459.5c21.1,392.5,72.7,541.8,268,784.9c76.6,97.6,95.7,135.9,95.7,193.4c0,105.3-65.1,174.2-208.7,216.3c-162.7,47.9-314,151.2-469.1,319.7c-224,241.2-361.8,461.4-515,815.6c-23,53.6-53.6,88.1-97.6,109.1C3168.6-273,3147.6-273,3078.7-309.3z"/></g></g>
</svg>