<?xml version="1.0" encoding="utf-8"?>
<!-- Svg Vector Icons : http://www.onlinewebfonts.com/icon -->
<!DOCTYPE svg PUBLIC "-//W3C//DTD SVG 1.1//EN" "http://www.w3.org/Graphics/SVG/1.1/DTD/svg11.dtd">
<svg version="1.1" xmlns="http://www.w3.org/2000/svg" xmlns:xlink="http://www.w3.org/1999/xlink" x="0px" y="0px" viewBox="0 0 1000 1000" enable-background="new 0 0 1000 1000" xml:space="preserve">
<metadata> Svg Vector Icons : http://www.onlinewebfonts.com/icon </metadata>
<g><g transform="translate(0.000000,344.000000) scale(0.100000,-0.100000)"><path d="M156.5,1726.2c-31.1-31.1-56.5-74-56.5-93.4c0-62.3,523.6-2651.2,543.1-2688.2c38.9-72,109-79.8,819.5-87.6c765-7.8,798.1-11.7,1062.8-142.1c266.7-132.4,492.5-356.2,622.9-621c35-74,95.4-255,132.4-399c83.7-329,146-504.1,266.7-743.6c186.9-371.8,373.7-624.8,693-932.4C5488-5184,7467.6-5221,8787.4-4066.7c179.1,155.7,404.9,414.6,543.1,622.9c628.7,948,735.8,2182.1,276.4,3221.5l-64.3,146l107.1,111c533.4,558.7,159.6,1456-605.4,1456c-220,0-399-68.1-584-220l-56.4-48.7l-120.7,75.9c-173.2,110.9-494.4,256.9-718.3,329c-299.8,95.4-535.3,136.3-856.5,149.9l-292,11.7l-64.2-54.5l-62.3-52.6v-329c0-453.5,31.1-426.3-482.7-426.3c-342.6,0-393.2,3.9-428.2,35c-21.4,17.5-103.2,190.8-179.1,383.5c-89.5,225.8-155.7,365.9-186.9,395.1l-48.7,42.8H2589.6H212.9L156.5,1726.2z M9281.8,1089.7c122.6-58.4,208.3-157.7,251.1-288.1c58.4-173.2,7.8-401-114.8-513.9l-46.7-44.8L9237,424c-72,99.3-227.8,274.5-342.6,389.3l-208.3,210.2l85.6,48.7C8935.3,1169.5,9102.7,1173.4,9281.8,1089.7z M6747.4-485.1c426.3-109,767-449.7,875.9-875.9c37-149.9,37-436,0-584c-91.5-346.5-323.1-630.7-644.3-786.4c-790.3-385.4-1720.7,198.5-1720.7,1078.4c0,552.8,364,1021.9,903.2,1167.9C6295.8-448.1,6605.3-448.1,6747.4-485.1z"/></g></g>
</svg>