<?xml version="1.0" encoding="utf-8"?>
<!-- Svg Vector Icons : http://www.onlinewebfonts.com/icon -->
<!DOCTYPE svg PUBLIC "-//W3C//DTD SVG 1.1//EN" "http://www.w3.org/Graphics/SVG/1.1/DTD/svg11.dtd">
<svg version="1.1" xmlns="http://www.w3.org/2000/svg" xmlns:xlink="http://www.w3.org/1999/xlink" x="0px" y="0px" viewBox="0 0 1000 1000" enable-background="new 0 0 1000 1000" xml:space="preserve">
<metadata> Svg Vector Icons : http://www.onlinewebfonts.com/icon </metadata>
<g><g transform="translate(0.000000,511.000000) scale(0.100000,-0.100000)"><path d="M164.2,3124.3l-64.2-66.7l15.4-544.2l18-544.2L521,1391.7c564.7-844.5,531.4-803.4,744.4-911.3l187.4-89.8l125.8-259.3c71.9-141.2,148.9-274.7,172-297.8c33.4-28.2,469.7-102.7,1578.7-266.9c844.5-123.2,1571-233.6,1614.6-241.3c77-12.8,82.1-20.5,97.5-161.7c95-800.9,618.6-1529.9,1363-1894.4c318.3-154,575-215.6,962.6-233.6c259.2-10.3,367.1-2.6,564.7,38.5c895.9,184.8,1586.4,806,1858.5,1666c210.5,667.4,115.5,1406.7-259.2,2007.3c-156.6,249-449.2,557-682.8,713.6c-100.1,66.7-631.5,485.1-1180.8,926.7l-998.5,800.9h-826.6c-826.6,0-829.1,0-880.5-56.5c-30.8-33.4-59-92.4-64.2-136l-7.7-77l-284.9-7.7l-287.5-7.7l-59,79.6c-33.4,46.2-87.3,107.8-118.1,143.8l-56.5,61.6H2156.1H228.3L164.2,3124.3z M4148.1,2426.1c138.6-195.1,279.8-392.7,313.2-436.4l61.6-84.7H2931.3H1337.3l-287.5,405.6C890.6,2531.4,749.4,2729,736.6,2747c-20.5,23.1,297.8,30.8,1568.4,30.8h1591.5L4148.1,2426.1z M7046.1,2364.5c282.4-225.9,523.7-423.5,536.5-436.4c15.4-12.8-269.5-23.1-718.7-23.1l-741.9,2.6l-282.4,397.9c-154,220.8-292.6,415.8-302.9,436.4c-18,30.8,59,35.9,487.7,35.9h508.2L7046.1,2364.5z M5434.1,2174.6c130.9-182.3,274.6-382.5,318.3-441.5l77-110.4h-346.5c-343.9,0-349.1,0-349.1,59c0,66.7-17.9,95-313.2,505.7c-125.8,169.4-225.9,315.7-225.9,323.4c0,5.1,136,7.7,300.3,5.1l300.3-7.7L5434.1,2174.6z M790.5,1976.9c218.2-313.2,236.2-346.5,236.2-462.1c0-66.7-5.1-123.2-10.3-123.2c-5.1,0-112.9,159.2-241.3,354.2c-161.7,246.4-236.2,385-249,462.1c-10.3,59-7.7,107.8,5.1,107.8C541.5,2313.2,659.6,2161.7,790.5,1976.9z M4723,1419.9c0-41.1,23.1-100.1,48.8-133.5c48.8-59,61.6-61.6,513.4-69.3l462.1-7.7l-133.5-159.1c-166.8-197.7-305.5-421-400.5-654.6c-74.4-182.3-156.6-469.7-156.6-559.6c0-25.7-10.3-61.6-20.5-79.6C5023.4-264,4622.9-215.2,3516.6-51L2014.9,172.4l-128.3,256.7c-125.8,251.6-133.5,259.3-290.1,341.4l-159.2,84.7V1176v318.3h1642.8H4723V1419.9z M8008.7,1417.3c554.5-156.6,1016.5-544.2,1270.6-1065.3c156.6-318.3,202.8-523.7,202.8-898.4c0-354.2-53.9-593-205.4-895.9c-123.2-243.9-236.1-392.7-444.1-585.3c-487.7-449.2-1137.1-628.9-1784-495.4c-634,130.9-1201.3,593-1455.4,1185.9c-154,361.9-197.6,895.8-100.1,1280.9c164.3,654.6,675.1,1221.9,1296.3,1434.9C7156.5,1504.6,7641.7,1520,8008.7,1417.3z"/></g></g>
</svg>